<svg width="512" height="512" viewBox="0 0 512 512" fill="none" xmlns="http://www.w3.org/2000/svg">
<g id="neptune 1" clip-path="url(#clip0)">
<path id="Vector" d="M256 512C397.385 512 512 397.385 512 256C512 114.615 397.385 0 256 0C114.615 0 0 114.615 0 256C0 397.385 114.615 512 256 512Z" fill="url(#paint0_linear)"/>
<path id="Vector_2" d="M283.221 122.363C294.734 110.85 309.966 103.782 326.195 102.476C370.772 98.8873 411.095 91.9622 444.308 82.5956C397.527 31.8193 330.484 -1.52588e-05 256 -1.52588e-05C202.572 -1.52588e-05 152.973 16.3719 111.933 44.3693C86.4658 61.7432 83.1197 98.0229 104.919 119.823C115.768 130.672 133.359 130.672 144.208 119.823C155.008 109.024 172.497 108.967 183.367 119.694C184.352 120.665 185.358 121.658 186.38 122.667C213.257 149.204 256.514 149.07 283.221 122.363Z" fill="url(#paint1_linear)"/>
<path id="Vector_3" d="M256 186.47C256 199.185 266.492 209.37 279.203 209.054C348.089 207.339 412.368 198.006 462.214 182.343C473.564 178.776 485.465 174.444 496.914 169.252C491.774 154.979 485.411 141.292 477.935 128.324C469.893 131.926 460.239 135.609 448.671 139.244C402.693 153.691 342.746 162.304 277.988 163.895C265.752 164.197 256 174.231 256 186.47Z" fill="url(#paint2_linear)"/>
<path id="Vector_4" d="M256 0C249.239 0 242.54 0.267043 235.912 0.781051C263.972 2.95956 290.764 9.66174 315.557 20.1597C400.939 56.313 377.051 183.399 284.375 186.31C275.043 186.603 265.577 186.753 255.999 186.753C159.613 186.753 74.5412 171.556 23.6725 148.376C8.49016 181.097 0 217.555 0 256V256.46C0.0461804 282.51 9.90469 307.589 27.3037 326.975L33.9737 334.406C45.0179 346.711 62.6056 350.188 77.8421 343.764C90.7415 338.326 105.566 340.287 116.602 348.875C137.601 365.214 164.851 371.164 190.417 363.799L215.565 356.554C230.465 352.261 246.448 356.502 257.449 367.43C265.403 375.333 276.162 379.77 287.379 379.77H306.678C326.423 379.77 345.211 371.742 359.242 357.849C369.892 347.303 383.499 340.241 398.258 337.596C403.139 336.721 407.884 335.835 411.413 335.101C434.773 330.242 453.309 354.681 442.132 375.762C441.989 376.033 441.844 376.304 441.699 376.574C437.897 383.682 431.261 388.851 423.431 390.768C392.472 398.349 356.874 403.664 318.74 406.442C303.103 407.581 287.382 406.204 272.152 402.476C257.453 398.879 242.296 397.508 227.19 398.409L171.543 401.729C160.837 402.368 150.189 399.755 140.995 394.232C137.219 391.963 133.042 389.453 128.934 386.986C114.741 378.458 97.3854 377.03 81.9893 383.122C76.0611 385.467 69.5065 385.705 63.4238 383.794L63.3284 383.764C47.7837 378.879 35.6864 373.908 26.3268 369.163C37.9362 392.68 53.0382 414.162 70.9762 432.916C123.241 446.483 187.949 453.863 256 453.863C256.474 453.863 256.948 453.863 257.422 453.862C290.575 453.815 294.921 501.8 262.312 507.785C253.656 509.373 244.848 510.525 235.912 511.219C242.54 511.733 249.239 512 256 512C397.385 512 512 397.385 512 256C512 114.615 397.385 0 256 0V0Z" fill="url(#paint3_linear)"/>
<path id="Vector_5" d="M463.746 405.598C412.192 423.231 338.208 434.286 256 434.286C173.796 434.286 99.8159 423.233 48.2625 405.601C55.2046 415.229 62.7913 424.361 70.9762 432.918C123.241 446.483 187.949 453.863 256 453.863C256.473 453.863 256.946 453.863 257.419 453.862C290.43 453.812 295.106 501.722 262.644 507.723C253.882 509.344 244.963 510.516 235.912 511.219C242.54 511.733 249.239 512 256 512C341.533 512 417.257 470.043 463.746 405.598Z" fill="url(#paint4_linear)"/>
<path id="Vector_6" d="M512 256C512 268.509 511.086 280.797 509.35 292.824C501.218 296.016 493.056 298.857 485.135 301.357C423.575 320.703 342.197 331.354 256 331.354C238.271 331.354 220.752 330.903 203.575 330.009C191.869 329.407 182.714 319.699 182.714 307.983C182.714 296.719 174.231 287.252 163.037 286.057C120.962 281.59 82.3015 274.071 49.7845 263.851C33.4406 258.711 15.9523 251.994 0.321243 243.401C1.14446 226.575 3.57395 210.171 7.48924 194.359C12.4888 198.396 27.9321 206.041 38.3106 210.979C44.9215 214.124 50.6569 218.838 55.034 224.707L56.7948 227.068C68.103 242.229 87.6805 248.708 105.799 243.283C117.655 239.734 130.47 241.569 140.853 248.3L145.348 251.213C156.137 258.208 170.145 257.73 180.431 250.015C186.288 245.622 193.517 243.488 200.823 243.951C218.764 245.087 237.231 245.67 256 245.67C329.106 245.67 397.533 236.825 448.673 220.752C477.907 211.566 494.963 202.069 504.511 194.359C508.416 210.171 510.876 226.565 511.689 243.391C511.89 247.567 512 251.773 512 256Z" fill="url(#paint5_linear)"/>
<path id="Vector_7" d="M379.494 257.108C341.805 263.098 299.738 266.27 256 266.27C252.108 266.27 248.229 266.245 244.366 266.196C231.797 266.035 221.535 276.194 221.535 288.763V288.79C221.535 301.16 231.489 311.209 243.859 311.368C247.891 311.421 251.939 311.447 256 311.447C301.965 311.447 346.409 308.074 386.523 301.709C397.499 299.967 405.584 290.517 405.584 279.402C405.584 265.531 393.195 254.931 379.494 257.108Z" fill="url(#paint6_linear)"/>
<path id="Vector_8" d="M456.132 238.903C453.738 239.717 451.254 240.532 448.673 241.343C446.953 241.882 445.213 242.414 443.454 242.938C433.885 245.788 427.319 254.585 427.319 264.57V264.597C427.319 279.69 441.856 290.547 456.322 286.243C458.308 285.652 460.273 285.051 462.216 284.441C465.018 283.563 467.854 282.636 470.706 281.662C479.811 278.552 485.898 269.947 485.898 260.325V260.301C485.898 244.869 470.741 233.931 456.132 238.903Z" fill="url(#paint7_linear)"/>
<path id="Vector_9" d="M448.672 139.245C419.076 148.545 383.686 155.422 344.956 159.57C330.689 175.028 310.203 185.5 284.362 186.312C275.037 186.605 265.578 186.754 256.008 186.754C256.163 199.337 266.588 209.369 279.204 209.055C348.09 207.34 412.369 198.007 462.215 182.344C473.565 178.777 485.466 174.445 496.915 169.253C491.775 154.98 485.412 141.293 477.936 128.325C469.893 131.926 460.239 135.61 448.672 139.245Z" fill="url(#paint8_linear)"/>
<path id="Vector_10" d="M235.934 0.783044C263.98 2.96256 290.759 9.66173 315.541 20.1537C351.421 35.343 367.999 66.5911 368.295 97.9356C396.278 94.1136 421.912 88.9113 444.308 82.5956C397.527 31.8193 330.484 -1.52588e-05 256 -1.52588e-05C249.247 -1.52588e-05 242.555 0.27004 235.934 0.783044Z" fill="url(#paint9_linear)"/>
<path id="SLetter" d="M209.8 406.8H265.4L255.8 299.6L209.8 287.6V168.8C209.8 164.533 211.4 160.4 214.6 156.4C218.067 152.133 221.8 150 225.8 150H292.6V169.6L235.8 177.2L241.8 265.6L292.6 278.8V410C292.6 415.6 289.8 421.067 284.2 426.4C278.6 431.467 272.867 434 267 434H209.8V406.8Z" fill="#7B583B"/>
<path id="CLetter" d="M367.958 429.105C354.401 430.187 344.119 428.734 337.113 424.745C330.086 420.491 326.286 414.775 325.713 407.598L306.875 171.548C306.365 165.169 308.732 159.629 313.975 154.931C319.218 150.232 326.89 147.48 336.991 146.674L402.383 141.455L404.165 163.784L401.763 214.135L375.447 216.235L367.864 171.496C367.407 169.125 365.717 168.056 362.793 168.29L346.046 169.626C340.198 170.093 336.524 172.66 335.024 177.327C333.768 181.708 333.591 187.875 334.494 195.828L358.746 394.127C358.873 395.722 359.734 396.456 361.329 396.329L384.855 394.451C387.779 394.218 389.31 393.293 389.448 391.677L394.941 359.939L419.662 357.966L424.977 424.555L367.958 429.105Z" fill="#6E6E6E"/>
<path id="MineLetter" d="M93 204V131H102L107.2 168.8H107.8L112.5 129H122.2V202H115.6L117.8 135.9H117.4L108.7 183.9H105.7L98.6 141H98.2V204H93ZM138.556 200H130.156V131H136.456L138.556 200ZM170.137 204H163.337L153.537 146.6H153.137L151.237 204H146.137L149.337 131H155.437L165.537 188.9H166.237V131H172.137L170.137 204ZM204.233 200H180.733L183.033 131H203.333V138.8H189.033V159.4H199.933V164.4L189.533 166.2V191.7L203.033 189.9L204.233 200Z" fill="#82C953"/>
</g>
<defs>
<linearGradient id="paint0_linear" x1="-8.29239" y1="256" x2="510.13" y2="256" gradientUnits="userSpaceOnUse">
<stop stop-color="#60B7FF"/>
<stop offset="0.5857" stop-color="#0182FC"/>
<stop offset="1" stop-color="#2740B0"/>
</linearGradient>
<linearGradient id="paint1_linear" x1="-99.3883" y1="71.2413" x2="485.203" y2="71.2413" gradientUnits="userSpaceOnUse">
<stop stop-color="#60B7FF"/>
<stop offset="0.5857" stop-color="#0182FC"/>
<stop offset="1" stop-color="#2740B0"/>
</linearGradient>
<linearGradient id="paint2_linear" x1="157.616" y1="168.693" x2="451.78" y2="168.693" gradientUnits="userSpaceOnUse">
<stop stop-color="#60B7FF"/>
<stop offset="0.5857" stop-color="#0182FC"/>
<stop offset="1" stop-color="#2740B0"/>
</linearGradient>
<linearGradient id="paint3_linear" x1="-112.277" y1="256" x2="470.519" y2="256" gradientUnits="userSpaceOnUse">
<stop stop-color="#60FFC6"/>
<stop offset="0.515625" stop-color="#0182FC"/>
<stop offset="1" stop-color="#2740B0"/>
</linearGradient>
<linearGradient id="paint4_linear" x1="-235.922" y1="458.799" x2="424.024" y2="458.799" gradientUnits="userSpaceOnUse">
<stop stop-color="#60B7FF"/>
<stop offset="0.5857" stop-color="#0182FC"/>
<stop offset="1" stop-color="#2740B0"/>
</linearGradient>
<linearGradient id="paint5_linear" x1="-109.43" y1="262.857" x2="599.718" y2="262.857" gradientUnits="userSpaceOnUse">
<stop stop-color="#60B7FF"/>
<stop offset="0.5857" stop-color="#0182FC"/>
<stop offset="1" stop-color="#2740B0"/>
</linearGradient>
<linearGradient id="paint6_linear" x1="-105.077" y1="284.135" x2="457.836" y2="284.135" gradientUnits="userSpaceOnUse">
<stop stop-color="#60B7FF"/>
<stop offset="0.5857" stop-color="#0182FC"/>
<stop offset="1" stop-color="#2740B0"/>
</linearGradient>
<linearGradient id="paint7_linear" x1="-105.078" y1="262.441" x2="457.836" y2="262.441" gradientUnits="userSpaceOnUse">
<stop stop-color="#60B7FF"/>
<stop offset="0.5857" stop-color="#0182FC"/>
<stop offset="1" stop-color="#2740B0"/>
</linearGradient>
<linearGradient id="paint8_linear" x1="-344.345" y1="168.693" x2="462.227" y2="168.693" gradientUnits="userSpaceOnUse">
<stop stop-color="#60FFBC"/>
<stop offset="0.5857" stop-color="#01EDFC"/>
<stop offset="1" stop-color="#2740B0"/>
</linearGradient>
<linearGradient id="paint9_linear" x1="-6.02357" y1="48.9673" x2="429.683" y2="48.9673" gradientUnits="userSpaceOnUse">
<stop stop-color="#60B7FF"/>
<stop offset="0.5857" stop-color="#0182FC"/>
<stop offset="1" stop-color="#2740B0"/>
</linearGradient>
<clipPath id="clip0">
<rect width="512" height="512" fill="white"/>
</clipPath>
</defs>
</svg>
